<svg xmlns:xlink="http://www.w3.org/1999/xlink" width="75ex" height="10.176ex" style="font-size: 15px; vertical-align: -6.005ex; max-width: 450;" viewBox="0 -1796 32291.5 4381.3" role="img" focusable="false" xmlns="http://www.w3.org/2000/svg">
<defs>
<path stroke-width="1" id="E1-MJMATHI-61" d="M33 157Q33 258 109 349T280 441Q331 441 370 392Q386 422 416 422Q429 422 439 414T449 394Q449 381 412 234T374 68Q374 43 381 35T402 26Q411 27 422 35Q443 55 463 131Q469 151 473 152Q475 153 483 153H487Q506 153 506 144Q506 138 501 117T481 63T449 13Q436 0 417 -8Q409 -10 393 -10Q359 -10 336 5T306 36L300 51Q299 52 296 50Q294 48 292 46Q233 -10 172 -10Q117 -10 75 30T33 157ZM351 328Q351 334 346 350T323 385T277 405Q242 405 210 374T160 293Q131 214 119 129Q119 126 119 118T118 106Q118 61 136 44T179 26Q217 26 254 59T298 110Q300 114 325 217T351 328Z"></path>
<path stroke-width="1" id="E1-MJMATHI-69" d="M184 600Q184 624 203 642T247 661Q265 661 277 649T290 619Q290 596 270 577T226 557Q211 557 198 567T184 600ZM21 287Q21 295 30 318T54 369T98 420T158 442Q197 442 223 419T250 357Q250 340 236 301T196 196T154 83Q149 61 149 51Q149 26 166 26Q175 26 185 29T208 43T235 78T260 137Q263 149 265 151T282 153Q302 153 302 143Q302 135 293 112T268 61T223 11T161 -11Q129 -11 102 10T74 74Q74 91 79 106T122 220Q160 321 166 341T173 380Q173 404 156 404H154Q124 404 99 371T61 287Q60 286 59 284T58 281T56 279T53 278T49 278T41 278H27Q21 284 21 287Z"></path>
<path stroke-width="1" id="E1-MJMAIN-2C" d="M78 35T78 60T94 103T137 121Q165 121 187 96T210 8Q210 -27 201 -60T180 -117T154 -158T130 -185T117 -194Q113 -194 104 -185T95 -172Q95 -168 106 -156T131 -126T157 -76T173 -3V9L172 8Q170 7 167 6T161 3T152 1T140 0Q113 0 96 17Z"></path>
<path stroke-width="1" id="E1-MJMATHI-6A" d="M297 596Q297 627 318 644T361 661Q378 661 389 651T403 623Q403 595 384 576T340 557Q322 557 310 567T297 596ZM288 376Q288 405 262 405Q240 405 220 393T185 362T161 325T144 293L137 279Q135 278 121 278H107Q101 284 101 286T105 299Q126 348 164 391T252 441Q253 441 260 441T272 442Q296 441 316 432Q341 418 354 401T367 348V332L318 133Q267 -67 264 -75Q246 -125 194 -164T75 -204Q25 -204 7 -183T-12 -137Q-12 -110 7 -91T53 -71Q70 -71 82 -81T95 -112Q95 -148 63 -167Q69 -168 77 -168Q111 -168 139 -140T182 -74L193 -32Q204 11 219 72T251 197T278 308T289 365Q289 372 288 376Z"></path>
<path stroke-width="1" id="E1-MJMAIN-3D" d="M56 347Q56 360 70 367H707Q722 359 722 347Q722 336 708 328L390 327H72Q56 332 56 347ZM56 153Q56 168 72 173H708Q722 163 722 153Q722 140 707 133H70Q56 140 56 153Z"></path>
<path stroke-width="1" id="E1-MJMATHI-65" d="M39 168Q39 225 58 272T107 350T174 402T244 433T307 442H310Q355 442 388 420T421 355Q421 265 310 237Q261 224 176 223Q139 223 138 221Q138 219 132 186T125 128Q125 81 146 54T209 26T302 45T394 111Q403 121 406 121Q410 121 419 112T429 98T420 82T390 55T344 24T281 -1T205 -11Q126 -11 83 42T39 168ZM373 353Q367 405 305 405Q272 405 244 391T199 357T170 316T154 280T149 261Q149 260 169 260Q282 260 327 284T373 353Z"></path>
<path stroke-width="1" id="E1-MJMATHBI-71" d="M38 159Q38 209 58 260T113 355T205 425T327 452Q338 452 348 451T366 449T382 444T394 440T405 434T414 429T422 423T429 418Q440 429 481 440T533 452Q540 452 545 447T550 437Q550 432 481 152Q410 -130 410 -131T437 -132H452Q479 -132 479 -150Q476 -187 462 -192Q458 -194 451 -194Q447 -194 414 -193T330 -192Q277 -192 249 -193T217 -194Q202 -194 197 -179Q197 -175 201 -159Q206 -139 211 -136T243 -132H283L319 15L307 10Q295 4 270 -2T220 -8Q134 -8 86 37T38 159ZM402 353Q402 358 395 368T369 390T324 401Q301 401 282 394T249 369T226 338T208 297T196 258T186 218Q166 141 166 107Q166 44 229 44Q265 44 294 61T337 95Q341 100 371 222T402 353Z"></path>
<path stroke-width="1" id="E1-MJMAIN-22C5" d="M78 250Q78 274 95 292T138 310Q162 310 180 294T199 251Q199 226 182 208T139 190T96 207T78 250Z"></path>
<path stroke-width="1" id="E1-MJMATHBI-6B" d="M99 -8Q71 -8 58 9T45 39Q45 51 116 336L188 622H184Q183 622 179 622T169 623T157 624T146 624T136 624T131 625Q119 628 119 642Q119 647 123 661T129 679Q133 684 144 685T220 690Q293 694 307 694Q324 694 328 679Q328 674 280 482Q231 290 231 287Q231 285 234 286Q259 302 294 334T356 390T420 433T493 452Q528 452 546 427T564 364Q564 308 538 282T480 256Q456 256 441 269T425 308Q425 339 444 359T483 384L502 389Q502 395 496 398Q493 400 483 400Q465 400 449 395T409 374T373 347T323 305T268 257Q274 256 282 256Q312 251 329 247T371 232T411 202Q431 181 431 146Q431 132 427 110T422 73Q422 44 440 44H442Q462 44 478 64T502 102T514 141Q518 157 522 159T547 162H558Q578 162 578 148Q578 118 537 56T440 -7H432Q374 -7 337 21T299 94Q299 103 301 116T304 139Q304 164 281 181T235 202L212 206H211Q176 47 160 24Q137 -8 99 -8Z"></path>
<path stroke-width="1" id="E1-MJSZ1-2211" d="M61 748Q64 750 489 750H913L954 640Q965 609 976 579T993 533T999 516H979L959 517Q936 579 886 621T777 682Q724 700 655 705T436 710H319Q183 710 183 709Q186 706 348 484T511 259Q517 250 513 244L490 216Q466 188 420 134T330 27L149 -187Q149 -188 362 -188Q388 -188 436 -188T506 -189Q679 -189 778 -162T936 -43Q946 -27 959 6H999L913 -249L489 -250Q65 -250 62 -248Q56 -246 56 -239Q56 -234 118 -161Q186 -81 245 -11L428 206Q428 207 242 462L57 717L56 728Q56 744 61 748Z"></path>
<path stroke-width="1" id="E1-MJMAIN-2248" d="M55 319Q55 360 72 393T114 444T163 472T205 482Q207 482 213 482T223 483Q262 483 296 468T393 413L443 381Q502 346 553 346Q609 346 649 375T694 454Q694 465 698 474T708 483Q722 483 722 452Q722 386 675 338T555 289Q514 289 468 310T388 357T308 404T224 426Q164 426 125 393T83 318Q81 289 69 289Q55 289 55 319ZM55 85Q55 126 72 159T114 210T163 238T205 248Q207 248 213 248T223 249Q262 249 296 234T393 179L443 147Q502 112 553 112Q609 112 649 141T694 220Q694 249 708 249T722 217Q722 153 675 104T555 55Q514 55 468 76T388 123T308 170T224 192Q164 192 125 159T83 84Q80 55 69 55Q55 55 55 85Z"></path>
<path stroke-width="1" id="E1-MJMAIN-7E" d="M179 251Q164 251 151 245T131 234T111 215L97 227L83 238Q83 239 95 253T121 283T142 304Q165 318 187 318T253 300T320 282Q335 282 348 288T368 299T388 318L402 306L416 295Q375 236 344 222Q330 215 313 215Q292 215 248 233T179 251Z"></path>
<path stroke-width="1" id="E1-MJMAIN-28" d="M94 250Q94 319 104 381T127 488T164 576T202 643T244 695T277 729T302 750H315H319Q333 750 333 741Q333 738 316 720T275 667T226 581T184 443T167 250T184 58T225 -81T274 -167T316 -220T333 -241Q333 -250 318 -250H315H302L274 -226Q180 -141 137 -14T94 250Z"></path>
<path stroke-width="1" id="E1-MJMATHI-3BB" d="M166 673Q166 685 183 694H202Q292 691 316 644Q322 629 373 486T474 207T524 67Q531 47 537 34T546 15T551 6T555 2T556 -2T550 -11H482Q457 3 450 18T399 152L354 277L340 262Q327 246 293 207T236 141Q211 112 174 69Q123 9 111 -1T83 -12Q47 -12 47 20Q47 37 61 52T199 187Q229 216 266 252T321 306L338 322Q338 323 288 462T234 612Q214 657 183 657Q166 657 166 673Z"></path>
<path stroke-width="1" id="E1-MJMAIN-29" d="M60 749L64 750Q69 750 74 750H86L114 726Q208 641 251 514T294 250Q294 182 284 119T261 12T224 -76T186 -143T145 -194T113 -227T90 -246Q87 -249 86 -250H74Q66 -250 63 -250T58 -247T55 -238Q56 -237 66 -225Q221 -64 221 250T66 725Q56 737 55 738Q55 746 60 749Z"></path>
</defs>
<g stroke="currentColor" fill="currentColor" stroke-width="0" transform="matrix(1 0 0 -1 0 0)">
<g transform="translate(5850,0)">
 <use xlink:href="#E1-MJMATHI-61" x="0" y="0"></use>
<g transform="translate(529,-150)">
 <use transform="scale(0.707)" xlink:href="#E1-MJMATHI-69" x="0" y="0"></use>
 <use transform="scale(0.707)" xlink:href="#E1-MJMAIN-2C" x="345" y="0"></use>
 <use transform="scale(0.707)" xlink:href="#E1-MJMATHI-6A" x="624" y="0"></use>
</g>
 <use xlink:href="#E1-MJMAIN-3D" x="1640" y="0"></use>
<g transform="translate(2418,0)">
<g transform="translate(397,0)">
<rect stroke="none" width="3494" height="60" x="0" y="220"></rect>
<g transform="translate(671,676)">
 <use xlink:href="#E1-MJMATHI-65" x="0" y="0"></use>
<g transform="translate(466,362)">
 <use transform="scale(0.707)" xlink:href="#E1-MJMATHBI-71" x="0" y="0"></use>
 <use transform="scale(0.574)" xlink:href="#E1-MJMATHI-69" x="668" y="-291"></use>
 <use transform="scale(0.707)" xlink:href="#E1-MJMAIN-22C5" x="922" y="0"></use>
<g transform="translate(849,0)">
 <use transform="scale(0.707)" xlink:href="#E1-MJMATHBI-6B" x="0" y="0"></use>
 <use transform="scale(0.574)" xlink:href="#E1-MJMATHI-6A" x="744" y="-238"></use>
</g>
</g>
</g>
<g transform="translate(60,-873)">
 <use xlink:href="#E1-MJSZ1-2211" x="0" y="0"></use>
 <use transform="scale(0.707)" xlink:href="#E1-MJMATHI-6A" x="540" y="-1253"></use>
<g transform="translate(1223,0)">
 <use xlink:href="#E1-MJMATHI-65" x="0" y="0"></use>
<g transform="translate(466,361)">
 <use transform="scale(0.707)" xlink:href="#E1-MJMATHBI-71" x="0" y="0"></use>
 <use transform="scale(0.574)" xlink:href="#E1-MJMATHI-69" x="668" y="-291"></use>
 <use transform="scale(0.707)" xlink:href="#E1-MJMAIN-22C5" x="922" y="0"></use>
<g transform="translate(849,0)">
 <use transform="scale(0.707)" xlink:href="#E1-MJMATHBI-6B" x="0" y="0"></use>
 <use transform="scale(0.574)" xlink:href="#E1-MJMATHI-6A" x="744" y="-238"></use>
</g>
</g>
</g>
</g>
</g>
</g>
 <use xlink:href="#E1-MJMAIN-2248" x="6708" y="0"></use>
<g transform="translate(7486,0)">
<g transform="translate(397,0)">
<rect stroke="none" width="4033" height="60" x="0" y="220"></rect>
<g transform="translate(671,814)">
 <use xlink:href="#E1-MJMATHBI-71" x="0" y="0"></use>
 <use xlink:href="#E1-MJMAIN-7E" x="126" y="346"></use>
 <use transform="scale(0.707)" xlink:href="#E1-MJMATHI-69" x="886" y="-326"></use>
 <use xlink:href="#E1-MJMAIN-22C5" x="1193" y="0"></use>
<g transform="translate(1693,0)">
 <use xlink:href="#E1-MJMATHBI-6B" x="0" y="0"></use>
 <use xlink:href="#E1-MJMAIN-7E" x="52" y="588"></use>
 <use transform="scale(0.707)" xlink:href="#E1-MJMATHI-6A" x="854" y="-213"></use>
</g>
</g>
<g transform="translate(60,-928)">
 <use xlink:href="#E1-MJSZ1-2211" x="0" y="0"></use>
 <use transform="scale(0.707)" xlink:href="#E1-MJMATHI-6A" x="540" y="-1253"></use>
<g transform="translate(1223,0)">
 <use xlink:href="#E1-MJMATHBI-71" x="0" y="0"></use>
 <use xlink:href="#E1-MJMAIN-7E" x="126" y="346"></use>
 <use transform="scale(0.707)" xlink:href="#E1-MJMATHI-69" x="886" y="-326"></use>
</g>
 <use xlink:href="#E1-MJMAIN-22C5" x="2416" y="0"></use>
<g transform="translate(2916,0)">
 <use xlink:href="#E1-MJMATHBI-6B" x="0" y="0"></use>
 <use xlink:href="#E1-MJMAIN-7E" x="52" y="588"></use>
 <use transform="scale(0.707)" xlink:href="#E1-MJMATHI-6A" x="854" y="-213"></use>
</g>
</g>
</g>
</g>
 <use xlink:href="#E1-MJMAIN-3D" x="12315" y="0"></use>
<g transform="translate(13094,0)">
<g transform="translate(397,0)">
<rect stroke="none" width="6978" height="60" x="0" y="220"></rect>
<g transform="translate(588,814)">
 <use xlink:href="#E1-MJMAIN-28" x="0" y="0"></use>
 <use xlink:href="#E1-MJMATHI-3BB" x="389" y="0"></use>
 <use xlink:href="#E1-MJMAIN-28" x="973" y="0"></use>
<g transform="translate(1362,0)">
 <use xlink:href="#E1-MJMATHBI-71" x="0" y="0"></use>
 <use xlink:href="#E1-MJMAIN-7E" x="126" y="346"></use>
 <use transform="scale(0.707)" xlink:href="#E1-MJMATHI-69" x="886" y="-326"></use>
</g>
 <use xlink:href="#E1-MJMAIN-29" x="2333" y="0"></use>
<g transform="translate(2722,0)">
 <use xlink:href="#E1-MJMATHBI-71" x="0" y="0"></use>
 <use xlink:href="#E1-MJMAIN-7E" x="126" y="346"></use>
 <use transform="scale(0.707)" xlink:href="#E1-MJMATHI-69" x="886" y="-326"></use>
</g>
 <use xlink:href="#E1-MJMAIN-29" x="3693" y="0"></use>
 <use xlink:href="#E1-MJMAIN-22C5" x="4305" y="0"></use>
<g transform="translate(4806,0)">
 <use xlink:href="#E1-MJMATHBI-6B" x="0" y="0"></use>
 <use xlink:href="#E1-MJMAIN-7E" x="52" y="588"></use>
 <use transform="scale(0.707)" xlink:href="#E1-MJMATHI-6A" x="854" y="-213"></use>
</g>
</g>
<g transform="translate(60,-928)">
 <use xlink:href="#E1-MJSZ1-2211" x="0" y="0"></use>
 <use transform="scale(0.707)" xlink:href="#E1-MJMATHI-6A" x="540" y="-1253"></use>
 <use xlink:href="#E1-MJMAIN-28" x="1056" y="0"></use>
 <use xlink:href="#E1-MJMATHI-3BB" x="1446" y="0"></use>
 <use xlink:href="#E1-MJMAIN-28" x="2029" y="0"></use>
<g transform="translate(2419,0)">
 <use xlink:href="#E1-MJMATHBI-71" x="0" y="0"></use>
 <use xlink:href="#E1-MJMAIN-7E" x="126" y="346"></use>
 <use transform="scale(0.707)" xlink:href="#E1-MJMATHI-69" x="886" y="-326"></use>
</g>
 <use xlink:href="#E1-MJMAIN-29" x="3389" y="0"></use>
<g transform="translate(3779,0)">
 <use xlink:href="#E1-MJMATHBI-71" x="0" y="0"></use>
 <use xlink:href="#E1-MJMAIN-7E" x="126" y="346"></use>
 <use transform="scale(0.707)" xlink:href="#E1-MJMATHI-69" x="886" y="-326"></use>
</g>
 <use xlink:href="#E1-MJMAIN-29" x="4750" y="0"></use>
 <use xlink:href="#E1-MJMAIN-22C5" x="5361" y="0"></use>
<g transform="translate(5862,0)">
 <use xlink:href="#E1-MJMATHBI-6B" x="0" y="0"></use>
 <use xlink:href="#E1-MJMAIN-7E" x="52" y="588"></use>
 <use transform="scale(0.707)" xlink:href="#E1-MJMATHI-6A" x="854" y="-213"></use>
</g>
</g>
</g>
</g>
</g>
</g>
</svg>